<?xml version="1.0" encoding="UTF-8" standalone="no"?><svg xmlns="http://www.w3.org/2000/svg" xmlns:xlink="http://www.w3.org/1999/xlink" contentScriptType="application/ecmascript" contentStyleType="text/css" height="864px" preserveAspectRatio="none" style="width:1203px;height:864px;" version="1.1" viewBox="0 0 1203 864" width="1203px" zoomAndPan="magnify"><defs/><g><!--MD5=[a6f11bb19cee6b13000111f5ad685e8b]
cluster Dependencies--><path d="M1065.62,83 L1159.62,83 A4.5,4.5 0 0 1 1162.62,86 L1169.62,103.4844 L1188.62,103.4844 A3,3 0 0 1 1191.62,106.4844 L1191.62,481 A3,3 0 0 1 1188.62,484 L1065.62,484 A3,3 0 0 1 1062.62,481 L1062.62,86 A3,3 0 0 1 1065.62,83 " fill="#FFFFFF" style="stroke: #000000; stroke-width: 1.5;"/><line style="stroke: #000000; stroke-width: 1.5;" x1="1062.62" x2="1169.62" y1="103.4844" y2="103.4844"/><text fill="#000000" font-family="Tahoma, sans-serif" font-size="12" font-weight="bold" lengthAdjust="spacingAndGlyphs" textLength="94" x="1066.62" y="97.0059">Dependencies</text><!--MD5=[d2021f74f0fc6f22cfddb786a037ded3]
entity @hapi--><rect fill="#F8F8F8" height="34.4844" rx="3" ry="3" style="stroke: #383838; stroke-width: 1.0;" width="56" x="1099.12" y="434"/><rect fill="#F8F8F8" height="5" style="stroke: #383838; stroke-width: 1.0;" width="10" x="1094.12" y="439"/><rect fill="#F8F8F8" height="5" style="stroke: #383838; stroke-width: 1.0;" width="10" x="1094.12" y="458.4844"/><text fill="#000000" font-family="Tahoma, sans-serif" font-size="12" lengthAdjust="spacingAndGlyphs" textLength="36" x="1109.12" y="456.0059">@hapi</text><!--MD5=[b84d8dbe3cf51322a9824c71d57d534f]
entity dotenv--><rect fill="#F8F8F8" height="34.4844" rx="3" ry="3" style="stroke: #383838; stroke-width: 1.0;" width="59" x="1097.62" y="275"/><rect fill="#F8F8F8" height="5" style="stroke: #383838; stroke-width: 1.0;" width="10" x="1092.62" y="280"/><rect fill="#F8F8F8" height="5" style="stroke: #383838; stroke-width: 1.0;" width="10" x="1092.62" y="299.4844"/><text fill="#000000" font-family="Tahoma, sans-serif" font-size="12" lengthAdjust="spacingAndGlyphs" textLength="39" x="1107.62" y="297.0059">dotenv</text><!--MD5=[16dba6da759719cf44ade31a6fa742fd]
entity handlebars--><rect fill="#F8F8F8" height="34.4844" rx="3" ry="3" style="stroke: #383838; stroke-width: 1.0;" width="83" x="1085.62" y="116"/><rect fill="#F8F8F8" height="5" style="stroke: #383838; stroke-width: 1.0;" width="10" x="1080.62" y="121"/><rect fill="#F8F8F8" height="5" style="stroke: #383838; stroke-width: 1.0;" width="10" x="1080.62" y="140.4844"/><text fill="#000000" font-family="Tahoma, sans-serif" font-size="12" lengthAdjust="spacingAndGlyphs" textLength="63" x="1095.62" y="138.0059">handlebars</text><!--MD5=[447dda1b7bbfe487a2141fbb8066a9e6]
entity hapi-swagger--><rect fill="#F8F8F8" height="34.4844" rx="3" ry="3" style="stroke: #383838; stroke-width: 1.0;" width="97" x="1078.62" y="169"/><rect fill="#F8F8F8" height="5" style="stroke: #383838; stroke-width: 1.0;" width="10" x="1073.62" y="174"/><rect fill="#F8F8F8" height="5" style="stroke: #383838; stroke-width: 1.0;" width="10" x="1073.62" y="193.4844"/><text fill="#000000" font-family="Tahoma, sans-serif" font-size="12" lengthAdjust="spacingAndGlyphs" textLength="77" x="1088.62" y="191.0059">hapi-swagger</text><!--MD5=[0ead4813197e84f97896f3fe50c0decb]
entity joi--><rect fill="#F8F8F8" height="34.4844" rx="3" ry="3" style="stroke: #383838; stroke-width: 1.0;" width="35" x="1109.62" y="222"/><rect fill="#F8F8F8" height="5" style="stroke: #383838; stroke-width: 1.0;" width="10" x="1104.62" y="227"/><rect fill="#F8F8F8" height="5" style="stroke: #383838; stroke-width: 1.0;" width="10" x="1104.62" y="246.4844"/><text fill="#000000" font-family="Tahoma, sans-serif" font-size="12" lengthAdjust="spacingAndGlyphs" textLength="15" x="1119.62" y="244.0059">joi</text><!--MD5=[e3bfa7961d47c56a847600d8be1ad6f4]
entity mongoose--><rect fill="#F8F8F8" height="34.4844" rx="3" ry="3" style="stroke: #383838; stroke-width: 1.0;" width="83" x="1085.62" y="328"/><rect fill="#F8F8F8" height="5" style="stroke: #383838; stroke-width: 1.0;" width="10" x="1080.62" y="333"/><rect fill="#F8F8F8" height="5" style="stroke: #383838; stroke-width: 1.0;" width="10" x="1080.62" y="352.4844"/><text fill="#000000" font-family="Tahoma, sans-serif" font-size="12" lengthAdjust="spacingAndGlyphs" textLength="63" x="1095.62" y="350.0059">mongoose</text><!--MD5=[30a483c10ad11699b96d09bf142b4abb]
entity uuid--><rect fill="#F8F8F8" height="34.4844" rx="3" ry="3" style="stroke: #383838; stroke-width: 1.0;" width="44" x="1105.12" y="381"/><rect fill="#F8F8F8" height="5" style="stroke: #383838; stroke-width: 1.0;" width="10" x="1100.12" y="386"/><rect fill="#F8F8F8" height="5" style="stroke: #383838; stroke-width: 1.0;" width="10" x="1100.12" y="405.4844"/><text fill="#000000" font-family="Tahoma, sans-serif" font-size="12" lengthAdjust="spacingAndGlyphs" textLength="24" x="1115.12" y="403.0059">uuid</text><ellipse cx="240.0543" cy="647.7873" fill="#F8F8F8" rx="61.9363" ry="14.7873" style="stroke: #383838; stroke-width: 0.5;"/><text fill="#000000" font-family="Tahoma, sans-serif" font-size="12" lengthAdjust="spacingAndGlyphs" textLength="93" x="193.5543" y="651.5294">about-controller</text><ellipse cx="240.1475" cy="353.0059" fill="#F8F8F8" rx="70.5295" ry="16.5059" style="stroke: #383838; stroke-width: 0.5;"/><text fill="#000000" font-family="Tahoma, sans-serif" font-size="12" lengthAdjust="spacingAndGlyphs" textLength="114" x="183.1475" y="356.7481">accounts-controller</text><ellipse cx="80.8377" cy="718.242" fill="#F8F8F8" rx="44.7193" ry="13.242" style="stroke: #383838; stroke-width: 0.5;"/><text fill="#000000" font-family="Tahoma, sans-serif" font-size="12" lengthAdjust="spacingAndGlyphs" textLength="59" x="51.3377" y="721.9842">api-routes</text><ellipse cx="902.352" cy="206.242" fill="#F8F8F8" rx="36.234" ry="13.242" style="stroke: #383838; stroke-width: 0.5;"/><text fill="#000000" font-family="Tahoma, sans-serif" font-size="12" lengthAdjust="spacingAndGlyphs" textLength="47" x="878.852" y="209.9842">connect</text><ellipse cx="240.1267" cy="445.1017" fill="#F8F8F8" rx="73.5087" ry="17.1017" style="stroke: #383838; stroke-width: 0.5;"/><text fill="#000000" font-family="Tahoma, sans-serif" font-size="12" lengthAdjust="spacingAndGlyphs" textLength="121" x="179.6267" y="448.8439">dashboard-controller</text><ellipse cx="397.0614" cy="495.1547" fill="#F8F8F8" rx="14.4434" ry="12.1547" style="stroke: #383838; stroke-width: 0.5;"/><text fill="#000000" font-family="Tahoma, sans-serif" font-size="12" lengthAdjust="spacingAndGlyphs" textLength="14" x="390.0614" y="498.8969">db</text><!--MD5=[902199418ea68b2a6032512a5a37bf81]
entity _joi_schemas--><rect fill="#F8F8F8" height="34.4844" rx="3" ry="3" style="stroke: #000000; stroke-width: 0.5;" width="93" x="350.618" y="430"/><text fill="#000000" font-family="Tahoma, sans-serif" font-size="12" lengthAdjust="spacingAndGlyphs" textLength="73" x="360.618" y="452.0059">joi-schemas</text><ellipse cx="397.0738" cy="840.242" fill="#F8F8F8" rx="28.4558" ry="13.242" style="stroke: #383838; stroke-width: 0.5;"/><text fill="#000000" font-family="Tahoma, sans-serif" font-size="12" lengthAdjust="spacingAndGlyphs" textLength="36" x="379.0738" y="843.9842">logger</text><!--MD5=[c6145cbfdc6252bdfacb6507bbd06d75]
entity _playlist--><rect fill="#F8F8F8" height="34.4844" rx="3" ry="3" style="stroke: #000000; stroke-width: 0.5;" width="60" x="872.118" y="238"/><text fill="#000000" font-family="Tahoma, sans-serif" font-size="12" lengthAdjust="spacingAndGlyphs" textLength="40" x="882.118" y="260.0059">playlist</text><ellipse cx="239.9586" cy="695.242" fill="#F8F8F8" rx="46.8406" ry="13.242" style="stroke: #383838; stroke-width: 0.5;"/><text fill="#000000" font-family="Tahoma, sans-serif" font-size="12" lengthAdjust="spacingAndGlyphs" textLength="62" x="208.9586" y="698.9842">playlist-api</text><ellipse cx="240.3532" cy="496.847" fill="#F8F8F8" rx="64.7352" ry="15.347" style="stroke: #383838; stroke-width: 0.5;"/><text fill="#000000" font-family="Tahoma, sans-serif" font-size="12" lengthAdjust="spacingAndGlyphs" textLength="100" x="190.3532" y="500.5892">playlist-controller</text><ellipse cx="733.307" cy="359.8378" fill="#F8F8F8" rx="67.189" ry="15.8378" style="stroke: #383838; stroke-width: 0.5;"/><text fill="#000000" font-family="Tahoma, sans-serif" font-size="12" lengthAdjust="spacingAndGlyphs" textLength="106" x="680.307" y="363.58">playlist-json-store</text><ellipse cx="733.051" cy="450.0866" fill="#F8F8F8" rx="68.433" ry="16.0866" style="stroke: #383838; stroke-width: 0.5;"/><text fill="#000000" font-family="Tahoma, sans-serif" font-size="12" lengthAdjust="spacingAndGlyphs" textLength="109" x="678.551" y="453.8288">playlist-mem-store</text><ellipse cx="554.1267" cy="281.1017" fill="#F8F8F8" rx="73.5087" ry="17.1017" style="stroke: #383838; stroke-width: 0.5;"/><text fill="#000000" font-family="Tahoma, sans-serif" font-size="12" lengthAdjust="spacingAndGlyphs" textLength="121" x="493.6267" y="284.8439">playlist-mongo-store</text><ellipse cx="80.6098" cy="353.242" fill="#F8F8F8" rx="31.9914" ry="13.242" style="stroke: #383838; stroke-width: 0.5;"/><text fill="#000000" font-family="Tahoma, sans-serif" font-size="12" font-weight="bold" lengthAdjust="spacingAndGlyphs" textLength="41" x="60.1098" y="356.9842">server</text><!--MD5=[b51025d6493e03f53ebf7e4b074f7afb]
entity _track--><rect fill="#F8F8F8" height="34.4844" rx="3" ry="3" style="stroke: #000000; stroke-width: 0.5;" width="48" x="878.118" y="291"/><text fill="#000000" font-family="Tahoma, sans-serif" font-size="12" lengthAdjust="spacingAndGlyphs" textLength="28" x="888.118" y="313.0059">track</text><ellipse cx="239.9733" cy="740.242" fill="#F8F8F8" rx="38.3553" ry="13.242" style="stroke: #383838; stroke-width: 0.5;"/><text fill="#000000" font-family="Tahoma, sans-serif" font-size="12" lengthAdjust="spacingAndGlyphs" textLength="50" x="214.9733" y="743.9842">track-api</text><ellipse cx="240.1025" cy="545.8969" fill="#F8F8F8" rx="59.9845" ry="14.3969" style="stroke: #383838; stroke-width: 0.5;"/><text fill="#000000" font-family="Tahoma, sans-serif" font-size="12" lengthAdjust="spacingAndGlyphs" textLength="88" x="196.1025" y="549.6391">track-controller</text><ellipse cx="901.9495" cy="397.8663" fill="#F8F8F8" rx="62.3315" ry="14.8663" style="stroke: #383838; stroke-width: 0.5;"/><text fill="#000000" font-family="Tahoma, sans-serif" font-size="12" lengthAdjust="spacingAndGlyphs" textLength="94" x="854.9495" y="401.6085">track-json-store</text><ellipse cx="902.1447" cy="486.1053" fill="#F8F8F8" rx="63.5267" ry="15.1053" style="stroke: #383838; stroke-width: 0.5;"/><text fill="#000000" font-family="Tahoma, sans-serif" font-size="12" lengthAdjust="spacingAndGlyphs" textLength="97" x="853.6447" y="489.8475">track-mem-store</text><ellipse cx="733.051" cy="308.0866" fill="#F8F8F8" rx="68.433" ry="16.0866" style="stroke: #383838; stroke-width: 0.5;"/><text fill="#000000" font-family="Tahoma, sans-serif" font-size="12" lengthAdjust="spacingAndGlyphs" textLength="109" x="678.551" y="311.8288">track-mongo-store</text><!--MD5=[5f377ac446ea5ce76805e8fa5ceccfd5]
entity _user--><rect fill="#F8F8F8" height="34.4844" rx="3" ry="3" style="stroke: #000000; stroke-width: 0.5;" width="45" x="879.618" y="520"/><text fill="#000000" font-family="Tahoma, sans-serif" font-size="12" lengthAdjust="spacingAndGlyphs" textLength="25" x="889.618" y="542.0059">user</text><ellipse cx="240.352" cy="785.242" fill="#F8F8F8" rx="36.234" ry="13.242" style="stroke: #383838; stroke-width: 0.5;"/><text fill="#000000" font-family="Tahoma, sans-serif" font-size="12" lengthAdjust="spacingAndGlyphs" textLength="47" x="216.852" y="788.9842">user-api</text><ellipse cx="902.2685" cy="588.1301" fill="#F8F8F8" rx="61.1505" ry="14.6301" style="stroke: #383838; stroke-width: 0.5;"/><text fill="#000000" font-family="Tahoma, sans-serif" font-size="12" lengthAdjust="spacingAndGlyphs" textLength="91" x="856.7685" y="591.8723">user-json-store</text><ellipse cx="901.9495" cy="636.8663" fill="#F8F8F8" rx="62.3315" ry="14.8663" style="stroke: #383838; stroke-width: 0.5;"/><text fill="#000000" font-family="Tahoma, sans-serif" font-size="12" lengthAdjust="spacingAndGlyphs" textLength="94" x="854.9495" y="640.6085">user-mem-store</text><ellipse cx="733.307" cy="539.8378" fill="#F8F8F8" rx="67.189" ry="15.8378" style="stroke: #383838; stroke-width: 0.5;"/><text fill="#000000" font-family="Tahoma, sans-serif" font-size="12" lengthAdjust="spacingAndGlyphs" textLength="106" x="680.307" y="543.58">user-mongo-store</text><ellipse cx="80.5803" cy="471.242" fill="#F8F8F8" rx="48.9619" ry="13.242" style="stroke: #383838; stroke-width: 0.5;"/><text fill="#000000" font-family="Tahoma, sans-serif" font-size="12" lengthAdjust="spacingAndGlyphs" textLength="65" x="48.0803" y="474.9842">web-routes</text><!--MD5=[107f96a8bcfd40c8aec2e435c11ba10a]
link accounts-controller to db--><path d="M284.755,365.908 C295.203,370.605 305.632,376.838 313.618,385 C343.579,415.617 320.915,443.133 350.618,474 C358.05,481.722 368.865,486.875 378.087,490.144 " fill="none" id="accounts-controller-&gt;db" style="stroke: #000000; stroke-width: 0.5;"/><polygon fill="#000000" points="383.014,491.77,375.721,485.1509,378.2659,490.203,373.2138,492.7479,383.014,491.77" style="stroke: #000000; stroke-width: 0.5;"/><!--MD5=[29df1e4ffdf53924b79dac16aa244d84]
link accounts-controller to _joi_schemas--><path d="M277.325,367.049 C289.179,372.153 302.223,378.322 313.618,385 C334.424,397.192 356.157,413.702 372.091,426.62 " fill="none" id="accounts-controller-&gt;_joi_schemas" style="stroke: #000000; stroke-width: 0.5;"/><polygon fill="#000000" points="376.013,429.821,371.5704,421.031,372.1397,426.6592,366.5115,427.2284,376.013,429.821" style="stroke: #000000; stroke-width: 0.5;"/><!--MD5=[4e3230f219ee1c3dbac47d4756c62ec8]
link api-routes to playlist-api--><path d="M120.956,712.255 C142.811,709.064 170.121,705.076 192.98,701.738 " fill="none" id="api-routes-&gt;playlist-api" style="stroke: #000000; stroke-width: 0.5;"/><polygon fill="#000000" points="198.086,700.992,188.6022,698.3353,193.1385,701.7149,189.7589,706.2512,198.086,700.992" style="stroke: #000000; stroke-width: 0.5;"/><!--MD5=[534b614235a4f2dee20533515aa14166]
link api-routes to track-api--><path d="M120.956,723.495 C144.859,726.834 175.289,731.084 199.282,734.436 " fill="none" id="api-routes-&gt;track-api" style="stroke: #000000; stroke-width: 0.5;"/><polygon fill="#000000" points="204.299,735.136,195.9385,729.9301,199.347,734.4447,194.8324,737.8532,204.299,735.136" style="stroke: #000000; stroke-width: 0.5;"/><!--MD5=[5703272d14ccc1f60a617f7cd7148bda]
link api-routes to user-api--><path d="M101.0211,729.654 C117.922,739.466 143.306,753.3966 166.618,763 C178.966,768.0864 192.922,772.5985 205.269,776.1918 " fill="none" id="api-routes-&gt;user-api" style="stroke: #000000; stroke-width: 0.5;"/><polygon fill="#000000" points="210.094,777.5735,202.5438,771.2494,205.2874,776.1964,200.3404,778.94,210.094,777.5735" style="stroke: #000000; stroke-width: 0.5;"/><!--MD5=[80be1df8c10100e02a1016de7542714c]
link connect to dotenv--><path d="M936.703,202.256 C967.481,200.73 1012.55,203.551 1041.62,228 C1055.28,239.49 1042.12,253.258 1054.62,266 C1064.75,276.329 1079.3,282.579 1092.64,286.35 " fill="none" id="connect-&gt;dotenv" style="stroke: #000000; stroke-width: 0.5;"/><polygon fill="#000000" points="1097.49,287.629,1089.8034,281.4714,1092.6544,286.3572,1087.7686,289.2083,1097.49,287.629" style="stroke: #000000; stroke-width: 0.5;"/><!--MD5=[e03f7950bf009a85624ca2456230b17d]
link connect to mongoose--><path d="M931.261,213.749 C942.411,217.473 955.062,222.55 965.618,229 C1004.805,252.943 1011.98,263.919 1041.62,299 C1048.46,307.099 1046.32,312.403 1054.62,319 C1062.28,325.089 1071.49,329.831 1080.72,333.496 " fill="none" id="connect-&gt;mongoose" style="stroke: #000000; stroke-width: 0.5;"/><polygon fill="#000000" points="1085.54,335.316,1078.5395,328.3883,1080.864,333.5455,1075.7067,335.87,1085.54,335.316" style="stroke: #000000; stroke-width: 0.5;"/><!--MD5=[d126ec3294ce6b43fa5def2efb3f06e7]
link dashboard-controller to db--><path d="M283.883,458.795 C315.04,468.846 355.641,481.943 378.489,489.313 " fill="none" id="dashboard-controller-&gt;db" style="stroke: #000000; stroke-width: 0.5;"/><polygon fill="#000000" points="383.357,490.883,376.0205,484.3122,378.5987,489.3474,373.5635,491.9255,383.357,490.883" style="stroke: #000000; stroke-width: 0.5;"/><!--MD5=[10b1fdaca386eaece00ff6a0cc074a4b]
link dashboard-controller to _joi_schemas--><path d="M313.626,445.936 C324.227,446.072 334.953,446.211 345.007,446.34 " fill="none" id="dashboard-controller-&gt;_joi_schemas" style="stroke: #000000; stroke-width: 0.5;"/><polygon fill="#000000" points="350.198,446.407,341.2502,442.2916,345.1984,446.3427,341.1473,450.291,350.198,446.407" style="stroke: #000000; stroke-width: 0.5;"/><!--MD5=[e24215131734e0a6107d7de7a48a7627]
link db to connect--><path d="M411.403,492.402 C421.811,489.649 435.796,484.228 443.618,474 C503.584,395.589 409.049,322.985 480.618,255 C534.617,203.706 766.664,202.918 861.004,204.815 " fill="none" id="db-&gt;connect" style="stroke: #000000; stroke-width: 0.5;"/><polygon fill="#000000" points="866.205,204.925,857.2916,200.7356,861.2061,204.8193,857.1224,208.7338,866.205,204.925" style="stroke: #000000; stroke-width: 0.5;"/><!--MD5=[802d18a20693a2ac0921439df3f9cb75]
link db to playlist-json-store--><path d="M411.159,491.708 C421.151,488.599 434.696,483.04 443.618,474 C471.99,445.255 448.152,415.024 480.618,391 C534.919,350.819 614.559,347.686 669.607,351.614 " fill="none" id="db-&gt;playlist-json-store" style="stroke: #000000; stroke-width: 0.5;"/><polygon fill="#000000" points="674.856,352.016,666.1861,347.3434,669.8705,351.6359,665.578,355.3203,674.856,352.016" style="stroke: #000000; stroke-width: 0.5;"/><!--MD5=[ae1433b290f4c5df303386994e8a3a7d]
link db to playlist-mem-store--><path d="M411.521,492.533 C427.819,489.577 456.182,484.578 480.618,481 C543.219,471.835 614.854,463.184 665.617,457.362 " fill="none" id="db-&gt;playlist-mem-store" style="stroke: #000000; stroke-width: 0.5;"/><polygon fill="#000000" points="670.772,456.773,661.3756,453.8222,665.8044,457.3415,662.2851,461.7703,670.772,456.773" style="stroke: #000000; stroke-width: 0.5;"/><!--MD5=[ecc28a21086c1184d921ceef65e2e2d1]
link db to playlist-mongo-store--><path d="M411.245,492.277 C421.562,489.452 435.501,483.995 443.618,474 C489.907,417.009 433.854,369.602 480.618,313 C486.312,306.109 493.785,300.655 501.767,296.352 " fill="none" id="db-&gt;playlist-mongo-store" style="stroke: #000000; stroke-width: 0.5;"/><polygon fill="#000000" points="506.247,294.078,496.4112,294.5843,501.7884,296.3409,500.0318,301.7181,506.247,294.078" style="stroke: #000000; stroke-width: 0.5;"/><!--MD5=[b125ee26212419e997c34f540ab16d01]
link db to track-json-store--><path d="M410.211,489.418 C433.019,478.891 480.162,457.142 480.618,457 C602.126,419.158 750.981,405.523 835.042,400.656 " fill="none" id="db-&gt;track-json-store" style="stroke: #000000; stroke-width: 0.5;"/><polygon fill="#000000" points="840.236,400.362,831.0241,396.8776,835.244,400.6449,831.4767,404.8648,840.236,400.362" style="stroke: #000000; stroke-width: 0.5;"/><!--MD5=[2291ff28505311e4ff47f94270090654]
link db to track-mem-store--><path d="M411.833,494.755 C471.875,493.68 713.891,489.35 833.511,487.21 " fill="none" id="db-&gt;track-mem-store" style="stroke: #000000; stroke-width: 0.5;"/><polygon fill="#000000" points="838.763,487.116,829.6924,483.2787,833.7638,487.206,829.8365,491.2774,838.763,487.116" style="stroke: #000000; stroke-width: 0.5;"/><!--MD5=[85e00b7941587b6d9046b755f02b7c85]
link db to track-mongo-store--><path d="M411.456,491.984 C421.612,489.029 435.232,483.54 443.618,474 C479.906,432.72 439.58,392.561 480.618,356 C507.022,332.477 597.752,319.652 662.651,313.314 " fill="none" id="db-&gt;track-mongo-store" style="stroke: #000000; stroke-width: 0.5;"/><polygon fill="#000000" points="667.669,312.832,658.3275,309.7118,662.692,313.3106,659.0932,317.675,667.669,312.832" style="stroke: #000000; stroke-width: 0.5;"/><!--MD5=[4a3a5488aa8c92c110cd2c48701afb65]
link db to user-json-store--><path d="M409.822,501.106 C425.532,509.068 454.49,522.926 480.618,531 C602.821,568.763 752.674,581.522 836.468,585.823 " fill="none" id="db-&gt;user-json-store" style="stroke: #000000; stroke-width: 0.5;"/><polygon fill="#000000" points="841.643,586.082,832.8542,581.6371,836.6493,585.832,832.4543,589.627,841.643,586.082" style="stroke: #000000; stroke-width: 0.5;"/><!--MD5=[35ea4bb68e993eedb80106736a4aa13a]
link db to user-mem-store--><path d="M405.827,504.706 C419.184,520.775 448.315,552.653 480.618,568 C596.584,623.092 748.564,635.199 834.438,637.283 " fill="none" id="db-&gt;user-mem-store" style="stroke: #000000; stroke-width: 0.5;"/><polygon fill="#000000" points="839.491,637.396,830.5824,633.1965,834.4922,637.2846,830.4041,641.1945,839.491,637.396" style="stroke: #000000; stroke-width: 0.5;"/><!--MD5=[4a4a19c9373d892b4a46c311cf96aa65]
link db to user-mongo-store--><path d="M411.521,497.467 C427.819,500.423 456.182,505.422 480.618,509 C543.745,518.242 616.058,526.961 666.893,532.784 " fill="none" id="db-&gt;user-mongo-store" style="stroke: #000000; stroke-width: 0.5;"/><polygon fill="#000000" points="672.053,533.373,663.5663,528.3754,667.0854,532.8044,662.6565,536.3235,672.053,533.373" style="stroke: #000000; stroke-width: 0.5;"/><!--MD5=[84a84a4fe177a82c142e7072f857f35a]
link _joi_schemas to joi--><path d="M398.603,429.864 C400.831,386.64 413.145,272.797 480.618,219 C578.829,140.695 944.24,70.664 1041.62,150 C1063.78,168.058 1035.92,191.37 1054.62,213 C1067.03,227.365 1088.05,233.795 1104.09,236.673 " fill="none" id="_joi_schemas-&gt;joi" style="stroke: #000000; stroke-width: 0.5;"/><polygon fill="#000000" points="1109.33,237.519,1101.0859,232.1306,1104.3944,236.719,1099.806,240.0275,1109.33,237.519" style="stroke: #000000; stroke-width: 0.5;"/><!--MD5=[58c18fabae061d3a32119c161964f699]
link _playlist to mongoose--><path d="M932.356,267.561 C969.462,283.465 1031.43,309.893 1054.62,319 C1063.02,322.3 1072.03,325.691 1080.73,328.889 " fill="none" id="_playlist-&gt;mongoose" style="stroke: #000000; stroke-width: 0.5;"/><polygon fill="#000000" points="1085.52,330.645,1078.4375,323.8011,1080.8232,328.9303,1075.694,331.316,1085.52,330.645" style="stroke: #000000; stroke-width: 0.5;"/><!--MD5=[764af6877e23e270bcca4f72aa089afb]
link playlist-api to @hapi--><path d="M282.919,700.486 C342.702,707.846 456.121,720 553.118,720 C553.118,720 553.118,720 1003.618,720 C1111.68,720 1124.85,537.985 1126.12,473.398 " fill="none" id="playlist-api-&gt;@hapi" style="stroke: #000000; stroke-width: 0.5;"/><polygon fill="#000000" points="1126.2,468.236,1122.0591,477.172,1126.1214,473.2354,1130.0581,477.2977,1126.2,468.236" style="stroke: #000000; stroke-width: 0.5;"/><!--MD5=[39238fafed797fcabc7505bf5e3fa3ca]
link playlist-api to db--><path d="M282.145,688.935 C293.33,685.681 304.784,680.681 313.618,673 C364.122,629.087 385.701,547.723 393.004,512.266 " fill="none" id="playlist-api-&gt;db" style="stroke: #000000; stroke-width: 0.5;"/><polygon fill="#000000" points="394.056,506.983,388.3767,515.0295,393.0804,511.8869,396.223,516.5905,394.056,506.983" style="stroke: #000000; stroke-width: 0.5;"/><!--MD5=[9c0d96604d80981ab0b716db19f64416]
link playlist-api to _joi_schemas--><path d="M283.834,690.156 C294.92,686.921 305.899,681.625 313.618,673 C373.61,605.964 299.117,547.76 350.618,474 C352.196,471.741 354.029,469.64 356.035,467.692 " fill="none" id="playlist-api-&gt;_joi_schemas" style="stroke: #000000; stroke-width: 0.5;"/><polygon fill="#000000" points="359.816,464.349,350.4238,467.3132,356.07,467.6607,355.7225,473.3069,359.816,464.349" style="stroke: #000000; stroke-width: 0.5;"/><!--MD5=[3b452cc1a7c31d8c9830e7dd17f27c13]
link playlist-controller to db--><path d="M304.61,496.181 C330.674,495.844 358.924,495.48 377.035,495.246 " fill="none" id="playlist-controller-&gt;db" style="stroke: #000000; stroke-width: 0.5;"/><polygon fill="#000000" points="382.316,495.178,373.2653,491.294,377.3164,495.2423,373.3682,499.2934,382.316,495.178" style="stroke: #000000; stroke-width: 0.5;"/><!--MD5=[3d2828858bb3297722802d3fb0e7af79]
link playlist-controller to _joi_schemas--><path d="M279.433,484.64 C299.436,478.188 324.165,470.211 345.702,463.263 " fill="none" id="playlist-controller-&gt;_joi_schemas" style="stroke: #000000; stroke-width: 0.5;"/><polygon fill="#000000" points="350.53,461.706,340.7365,460.6635,345.7717,463.2416,343.1935,468.2768,350.53,461.706" style="stroke: #000000; stroke-width: 0.5;"/><!--MD5=[b5933aeeb15c68605b03a987a4706137]
link playlist-json-store to track-json-store--><path d="M782.422,370.991 C803.914,375.882 829.215,381.639 850.924,386.579 " fill="none" id="playlist-json-store-&gt;track-json-store" style="stroke: #000000; stroke-width: 0.5;"/><polygon fill="#000000" points="856.072,387.75,848.1845,381.852,851.1967,386.6401,846.4086,389.6524,856.072,387.75" style="stroke: #000000; stroke-width: 0.5;"/><!--MD5=[c92a2d13560d14c25d5117ac04414a12]
link playlist-json-store to uuid--><path d="M799.574,362.728 C845.988,364.962 909.706,368.638 965.618,374 C999.532,377.253 1007.92,378.993 1041.62,384 C1061.21,386.912 1083.3,390.584 1099.97,393.437 " fill="none" id="playlist-json-store-&gt;uuid" style="stroke: #000000; stroke-width: 0.5;"/><polygon fill="#000000" points="1104.97,394.294,1096.7731,388.8341,1100.0415,393.4512,1095.4245,396.7197,1104.97,394.294" style="stroke: #000000; stroke-width: 0.5;"/><!--MD5=[c807f0a6df308563f1493b028b7779a8]
link playlist-mem-store to track-mem-store--><path d="M784.224,460.801 C804.948,465.269 828.958,470.445 849.807,474.939 " fill="none" id="playlist-mem-store-&gt;track-mem-store" style="stroke: #000000; stroke-width: 0.5;"/><polygon fill="#000000" points="854.757,476.006,846.8013,470.2003,849.8691,474.953,845.1164,478.0209,854.757,476.006" style="stroke: #000000; stroke-width: 0.5;"/><!--MD5=[f98f2631a6c2918ac935e76e31184dba]
link playlist-mem-store to uuid--><path d="M796.102,443.425 C842.769,438.316 908.285,430.806 965.618,423 C1012.9,416.563 1067.8,407.713 1099.59,402.452 " fill="none" id="playlist-mem-store-&gt;uuid" style="stroke: #000000; stroke-width: 0.5;"/><polygon fill="#000000" points="1104.87,401.576,1095.3387,399.0952,1099.9368,402.3903,1096.6417,406.9884,1104.87,401.576" style="stroke: #000000; stroke-width: 0.5;"/><!--MD5=[5468c2d2627098aeb022f44a99c69acf]
link playlist-mongo-store to _playlist--><path d="M624.305,275.801 C697.667,270.288 810.553,261.806 866.802,257.579 " fill="none" id="playlist-mongo-store-&gt;_playlist" style="stroke: #000000; stroke-width: 0.5;"/><polygon fill="#000000" points="872.065,257.183,862.7899,253.8706,867.0791,257.5587,863.391,261.848,872.065,257.183" style="stroke: #000000; stroke-width: 0.5;"/><!--MD5=[b208a0cf7fc4b0214bf57257943a21dc]
link playlist-mongo-store to track-mongo-store--><path d="M616.032,290.292 C633.432,292.946 652.412,295.841 669.89,298.508 " fill="none" id="playlist-mongo-store-&gt;track-mongo-store" style="stroke: #000000; stroke-width: 0.5;"/><polygon fill="#000000" points="675.262,299.327,666.9684,294.0151,670.3192,298.5727,665.7616,301.9235,675.262,299.327" style="stroke: #000000; stroke-width: 0.5;"/><!--MD5=[ce06550ef25565d133d3fa1fd0fa8a18]
link <b>server</b> to @hapi--><path d="M88.843,365.728 C98.9115,383.819 117.309,418.2 129.618,449 C150.488,501.22 124.045,533.258 166.618,570 C229.103,623.927 818.581,681 901.118,681 C901.118,681 901.118,681 1003.618,681 C1096.97,681 1119.42,531.572 1124.62,473.604 " fill="none" id="&lt;b&gt;server&lt;/b&gt;-&gt;@hapi" style="stroke: #000000; stroke-width: 1.0;"/><polygon fill="#000000" points="1125.07,468.287,1120.3262,476.9181,1124.6489,473.2692,1128.2977,477.5919,1125.07,468.287" style="stroke: #000000; stroke-width: 1.0;"/><!--MD5=[53a3b6e7b8c642168166af8e0c0fe446]
link <b>server</b> to accounts-controller--><path d="M112.735,353 C127.567,353 146.01,353 164.182,353 " fill="none" id="&lt;b&gt;server&lt;/b&gt;-&gt;accounts-controller" style="stroke: #000000; stroke-width: 1.0;"/><polygon fill="#000000" points="169.297,353,160.297,349,164.297,353,160.297,357,169.297,353" style="stroke: #000000; stroke-width: 1.0;"/><!--MD5=[00eca63fe0a8956e3ea2b787e951db21]
link <b>server</b> to api-routes--><path d="M69.2089,365.441 C53.014,384.038 24.1073,420.935 13.1184,458.5 C-13.3634,549.027 44.3581,658.813 69.5826,700.663 " fill="none" id="&lt;b&gt;server&lt;/b&gt;-&gt;api-routes" style="stroke: #000000; stroke-width: 1.0;"/><polygon fill="#000000" points="72.2048,704.963,70.9323,695.1967,69.6008,700.6946,64.1029,699.3631,72.2048,704.963" style="stroke: #000000; stroke-width: 1.0;"/><!--MD5=[246d5562774640d6dbd7542825a3d23f]
link <b>server</b> to db--><path d="M106.477,360.827 C123.392,366.098 146.307,373.132 166.618,379 C231.667,397.794 258.596,379.541 313.618,419 C337.559,436.169 328.19,454.897 350.618,474 C358.666,480.854 369.323,485.933 378.301,489.377 " fill="none" id="&lt;b&gt;server&lt;/b&gt;-&gt;db" style="stroke: #000000; stroke-width: 1.0;"/><polygon fill="#000000" points="383.088,491.123,376.0048,484.2798,378.391,489.4088,373.2621,491.795,383.088,491.123" style="stroke: #000000; stroke-width: 1.0;"/><!--MD5=[9404c50a3056e176b696518d23060ff1]
link <b>server</b> to dotenv--><path d="M90.9307,340.671 C125.752,296.108 253.62,146 396.118,146 C396.118,146 396.118,146 555.118,146 C755.59,146 816.032,123.288 1003.618,194 C1021.29,200.66 1029.84,198.245 1041.62,213 C1056.75,231.953 1038.42,247.947 1054.62,266 C1064.36,276.857 1079,283.186 1092.51,286.872 " fill="none" id="&lt;b&gt;server&lt;/b&gt;-&gt;dotenv" style="stroke: #000000; stroke-width: 1.0;"/><polygon fill="#000000" points="1097.42,288.114,1089.6786,282.0254,1092.5733,286.8855,1087.7131,289.7801,1097.42,288.114" style="stroke: #000000; stroke-width: 1.0;"/><!--MD5=[0d827fa645996d50d52b3e0294a88802]
link <b>server</b> to handlebars--><path d="M81.5476,339.817 C82.0504,295.756 89.7737,152.104 166.618,76 C242.206,1.141 289.735,8 396.118,8 C396.118,8 396.118,8 1003.618,8 C1060.76,8 1100.05,75.454 1116.89,111.259 " fill="none" id="&lt;b&gt;server&lt;/b&gt;-&gt;handlebars" style="stroke: #000000; stroke-width: 1.0;"/><polygon fill="#000000" points="1119.02,115.881,1118.8754,106.0332,1116.9224,111.3423,1111.6134,109.3893,1119.02,115.881" style="stroke: #000000; stroke-width: 1.0;"/><!--MD5=[b5d221c6271f171d3a6215a3b2fc780e]
link <b>server</b> to hapi-swagger--><path d="M82.8552,339.895 C87.1219,301.979 104.5693,190.994 166.618,130 C243.97,53.964 287.653,47 396.118,47 C396.118,47 396.118,47 1003.618,47 C1040.59,47 1027.29,86.919 1041.62,121 C1048.7,137.842 1041.87,146.907 1054.62,160 C1059.93,165.46 1066.48,169.78 1073.44,173.196 " fill="none" id="&lt;b&gt;server&lt;/b&gt;-&gt;hapi-swagger" style="stroke: #000000; stroke-width: 1.0;"/><polygon fill="#000000" points="1078.31,175.419,1071.7771,168.0487,1073.7596,173.3468,1068.4616,175.3293,1078.31,175.419" style="stroke: #000000; stroke-width: 1.0;"/><!--MD5=[742a3f335a1bb9c5ca25ea50c1e43dd7]
link <b>server</b> to joi--><path d="M85.5609,339.789 C94.9894,310.218 121.478,237.932 166.618,195 C248.442,117.181 283.199,86 396.118,86 C396.118,86 396.118,86 1003.618,86 C1031.53,86 1030.53,110.386 1041.62,136 C1055.41,167.85 1032.4,186.336 1054.62,213 C1066.85,227.679 1088.08,234.07 1104.25,236.853 " fill="none" id="&lt;b&gt;server&lt;/b&gt;-&gt;joi" style="stroke: #000000; stroke-width: 1.0;"/><polygon fill="#000000" points="1109.51,237.666,1101.2347,232.3257,1104.5698,236.8948,1100.0007,240.2299,1109.51,237.666" style="stroke: #000000; stroke-width: 1.0;"/><!--MD5=[8122a2c471405a7c0ede6f37952d6d2d]
link <b>server</b> to web-routes--><path d="M80.6184,366.079 C80.6184,394.928 80.6184,423.777 80.6184,452.626 " fill="none" id="&lt;b&gt;server&lt;/b&gt;-&gt;web-routes" style="stroke: #000000; stroke-width: 1.0;"/><polygon fill="#000000" points="80.6184,457.633,84.6184,448.633,80.6184,452.633,76.6184,448.633,80.6184,457.633" style="stroke: #000000; stroke-width: 1.0;"/><!--MD5=[8bac8eb86a7e568c1ee5eb6080bb46b2]
link _track to mongoose--><path d="M926.143,311.82 C962.434,317.842 1033.62,329.654 1080.53,337.436 " fill="none" id="_track-&gt;mongoose" style="stroke: #000000; stroke-width: 0.5;"/><polygon fill="#000000" points="1085.56,338.271,1077.3317,332.8586,1080.6268,337.4567,1076.0287,340.7518,1085.56,338.271" style="stroke: #000000; stroke-width: 0.5;"/><!--MD5=[42a4f9478f5345bc47821469bd404bc5]
link track-api to @hapi--><path d="M277.107,743.618 C335.134,749.131 452.996,759 553.118,759 C553.118,759 553.118,759 1003.618,759 C1065.03,759 1109.19,544.898 1122.18,473.709 " fill="none" id="track-api-&gt;@hapi" style="stroke: #000000; stroke-width: 0.5;"/><polygon fill="#000000" points="1123.13,468.442,1117.5925,476.5867,1122.2404,473.3622,1125.4648,478.0101,1123.13,468.442" style="stroke: #000000; stroke-width: 0.5;"/><!--MD5=[05049a9f5c732fcbbeb5593364ac9737]
link track-api to db--><path d="M276.913,735.863 C289.829,732.769 303.661,727.38 313.618,718 C374.726,660.437 390.809,553.599 394.84,512.102 " fill="none" id="track-api-&gt;db" style="stroke: #000000; stroke-width: 0.5;"/><polygon fill="#000000" points="395.313,506.918,390.5095,515.516,394.8574,511.8972,398.4762,516.2451,395.313,506.918" style="stroke: #000000; stroke-width: 0.5;"/><!--MD5=[fbe40941db111dc5f3d1ca4206430940]
link track-controller to db--><path d="M276.29,534.427 C308.144,523.946 353.761,508.937 378.512,500.793 " fill="none" id="track-controller-&gt;db" style="stroke: #000000; stroke-width: 0.5;"/><polygon fill="#000000" points="383.465,499.163,373.6657,498.1762,378.7155,500.7257,376.166,505.7755,383.465,499.163" style="stroke: #000000; stroke-width: 0.5;"/><!--MD5=[7a58f8c2dd09ae0783e74f861130edbd]
link track-controller to _joi_schemas--><path d="M284.914,536.136 C294.9,532.664 305.075,528.059 313.618,522 C335.589,506.418 330.454,491.858 350.618,474 C353.36,471.572 356.352,469.245 359.449,467.046 " fill="none" id="track-controller-&gt;_joi_schemas" style="stroke: #000000; stroke-width: 0.5;"/><polygon fill="#000000" points="363.724,464.131,354.0347,465.8965,359.593,466.9479,358.5417,472.5062,363.724,464.131" style="stroke: #000000; stroke-width: 0.5;"/><!--MD5=[63243e78b3cf592e03cb5b119239baed]
link track-json-store to uuid--><path d="M964.644,398 C1009.07,398 1066.83,398 1099.86,398 " fill="none" id="track-json-store-&gt;uuid" style="stroke: #000000; stroke-width: 0.5;"/><polygon fill="#000000" points="1104.94,398,1095.94,394,1099.94,398,1095.94,402,1104.94,398" style="stroke: #000000; stroke-width: 0.5;"/><!--MD5=[c21a2eb410520ce8394b63e4e2ab36fc]
link track-mem-store to uuid--><path d="M963.348,481.996 C989.712,477.598 1019.59,468.719 1041.62,451 C1051.69,442.903 1045.03,433.655 1054.62,425 C1067.27,413.58 1085.24,406.822 1099.99,402.923 " fill="none" id="track-mem-store-&gt;uuid" style="stroke: #000000; stroke-width: 0.5;"/><polygon fill="#000000" points="1104.86,401.708,1095.1581,400.0129,1100.0096,402.922,1097.1005,407.7735,1104.86,401.708" style="stroke: #000000; stroke-width: 0.5;"/><!--MD5=[9e6a8fe6010d039eb1830d55e106f3a5]
link track-mongo-store to _playlist--><path d="M774.544,295.17 C802.898,286.172 840.375,274.278 867.177,265.772 " fill="none" id="track-mongo-store-&gt;_playlist" style="stroke: #000000; stroke-width: 0.5;"/><polygon fill="#000000" points="872.053,264.224,862.2646,263.1346,867.2874,265.7368,864.6851,270.7596,872.053,264.224" style="stroke: #000000; stroke-width: 0.5;"/><!--MD5=[96087fb882f32366e514e8c80e728c1b]
link track-mongo-store to _track--><path d="M802.044,308 C826.641,308 853.108,308 872.494,308 " fill="none" id="track-mongo-store-&gt;_track" style="stroke: #000000; stroke-width: 0.5;"/><polygon fill="#000000" points="877.766,308,868.766,304,872.766,308,868.766,312,877.766,308" style="stroke: #000000; stroke-width: 0.5;"/><!--MD5=[da9f0ff14ed8ce2a314b73cf35c801a5]
link _user to @hapi--><path d="M924.772,540.105 C952.923,543.189 1003.044,545.38 1041.62,529 C1070.15,516.885 1095.15,490.775 1110.42,472.102 " fill="none" id="_user-&gt;@hapi" style="stroke: #000000; stroke-width: 0.5;"/><polygon fill="#000000" points="1113.71,468.002,1104.9572,472.5174,1110.5804,471.9015,1111.1963,477.5247,1113.71,468.002" style="stroke: #000000; stroke-width: 0.5;"/><!--MD5=[a93c83c05b3ddb58105ceb78520d288c]
link _user to mongoose--><path d="M924.832,531.532 C937.732,527.468 953.821,520.891 965.618,511 C1021.83,463.869 997.633,418.193 1054.62,372 C1062.25,365.81 1071.46,360.941 1080.69,357.148 " fill="none" id="_user-&gt;mongoose" style="stroke: #000000; stroke-width: 0.5;"/><polygon fill="#000000" points="1085.5,355.261,1075.6607,354.828,1080.8461,357.0889,1078.5852,362.2743,1085.5,355.261" style="stroke: #000000; stroke-width: 0.5;"/><!--MD5=[c820e5ff7a4b8c1a21b0352f79f3f741]
link user-api to @hapi--><path d="M275.726,787.3844 C333.27,791.1374 452.281,798 553.118,798 C553.118,798 553.118,798 1003.618,798 C1072.71,798 1112.5,550.259 1123.18,473.438 " fill="none" id="user-api-&gt;@hapi" style="stroke: #000000; stroke-width: 0.5;"/><polygon fill="#000000" points="1123.9,468.208,1118.714,476.5809,1123.2205,473.1616,1126.6398,477.6681,1123.9,468.208" style="stroke: #000000; stroke-width: 0.5;"/><!--MD5=[3fdbc614c4c7887f1efcd23e312ef153]
link user-api to db--><path d="M274.961,781.6581 C288.539,778.7083 303.367,773.2105 313.618,763 C385.358,691.548 394.984,559.301 396.071,512.207 " fill="none" id="user-api-&gt;db" style="stroke: #000000; stroke-width: 0.5;"/><polygon fill="#000000" points="396.162,507.149,392.0006,516.0755,396.072,512.1482,399.9993,516.2196,396.162,507.149" style="stroke: #000000; stroke-width: 0.5;"/><!--MD5=[89d6649c4702120b795936c22ea16c28]
link user-api to _joi_schemas--><path d="M275.476,782.5532 C289.311,779.7675 304.193,774.1505 313.618,763 C397.214,664.105 279.514,582.225 350.618,474 C352.132,471.697 353.915,469.563 355.884,467.59 " fill="none" id="user-api-&gt;_joi_schemas" style="stroke: #000000; stroke-width: 0.5;"/><polygon fill="#000000" points="359.612,464.211,350.2578,467.2929,355.9078,467.5695,355.6313,473.2195,359.612,464.211" style="stroke: #000000; stroke-width: 0.5;"/><!--MD5=[55f99a844c13c2212828cdaa439a0d16]
link user-api to logger--><path d="M266.367,793.9591 C294.587,803.9727 340.108,820.1254 369.048,830.3944 " fill="none" id="user-api-&gt;logger" style="stroke: #000000; stroke-width: 0.5;"/><polygon fill="#000000" points="373.898,832.1153,366.7548,825.3348,369.1861,830.4425,364.0784,832.8738,373.898,832.1153" style="stroke: #000000; stroke-width: 0.5;"/><!--MD5=[a193d24a2a946bd597d37223e7dc5176]
link user-json-store to uuid--><path d="M953.069,579.915 C983.681,572.213 1020.86,557.367 1041.62,529 C1069.13,491.41 1025.8,461.597 1054.62,425 C1065.46,411.232 1084.15,404.484 1099.7,401.177 " fill="none" id="user-json-store-&gt;uuid" style="stroke: #000000; stroke-width: 0.5;"/><polygon fill="#000000" points="1104.83,400.182,1095.2309,397.9779,1099.9224,401.1387,1096.7616,405.8301,1104.83,400.182" style="stroke: #000000; stroke-width: 0.5;"/><!--MD5=[1a114f0a3d547e32a1e406050bed474b]
link user-mem-store to uuid--><path d="M940.43,625.033 C949.054,621.478 957.944,617.132 965.618,612 C1005.852,585.094 1020.76,577.676 1041.62,534 C1062.64,489.975 1024.54,463.415 1054.62,425 C1065.42,411.202 1084.11,404.454 1099.67,401.155 " fill="none" id="user-mem-store-&gt;uuid" style="stroke: #000000; stroke-width: 0.5;"/><polygon fill="#000000" points="1104.81,400.163,1095.2172,397.932,1099.8997,401.1059,1096.7258,405.7885,1104.81,400.163" style="stroke: #000000; stroke-width: 0.5;"/><!--MD5=[5ab35536497b0e007d0eb7c2e8b19e1d]
link user-mongo-store to _user--><path d="M800.121,538.814 C826.066,538.348 854.37,537.84 874.396,537.48 " fill="none" id="user-mongo-store-&gt;_user" style="stroke: #000000; stroke-width: 0.5;"/><polygon fill="#000000" points="879.559,537.387,870.4885,533.5496,874.5598,537.477,870.6324,541.5483,879.559,537.387" style="stroke: #000000; stroke-width: 0.5;"/><!--MD5=[00ad594b1ee00b0dea45579ac80f0012]
link web-routes to about-controller--><path d="M85.9696,484.295 C95.8764,512.635 122.713,579.536 166.618,618 C174.543,624.943 184.297,630.429 194.051,634.704 " fill="none" id="web-routes-&gt;about-controller" style="stroke: #000000; stroke-width: 0.5;"/><polygon fill="#000000" points="198.832,636.707,192.0779,629.5389,194.2207,634.7742,188.9854,636.917,198.832,636.707" style="stroke: #000000; stroke-width: 0.5;"/><!--MD5=[f6185044b2e2398c277a69c81a4c722f]
link web-routes to accounts-controller--><path d="M97.8804,458.816 C125.335,438.247 181.07,396.49 213.717,372.031 " fill="none" id="web-routes-&gt;accounts-controller" style="stroke: #000000; stroke-width: 0.5;"/><polygon fill="#000000" points="217.971,368.844,208.3696,371.038,213.9691,371.8415,213.1656,377.441,217.971,368.844" style="stroke: #000000; stroke-width: 0.5;"/><!--MD5=[15da91cd95165350ba7e5723048607cd]
link web-routes to dashboard-controller--><path d="M122.589,464.237 C138.501,461.61 157.111,458.538 174.729,455.629 " fill="none" id="web-routes-&gt;dashboard-controller" style="stroke: #000000; stroke-width: 0.5;"/><polygon fill="#000000" points="179.668,454.814,170.1367,452.3332,174.7348,455.6283,171.4397,460.2264,179.668,454.814" style="stroke: #000000; stroke-width: 0.5;"/><!--MD5=[b4310fb1b3a042d9ec78bcfe37130882]
link web-routes to playlist-controller--><path d="M122.589,477.763 C140.417,480.707 161.632,484.209 181.043,487.413 " fill="none" id="web-routes-&gt;playlist-controller" style="stroke: #000000; stroke-width: 0.5;"/><polygon fill="#000000" points="186.466,488.308,178.2377,482.8956,181.5328,487.4937,176.9347,490.7888,186.466,488.308" style="stroke: #000000; stroke-width: 0.5;"/><!--MD5=[5ca6f88a678e2d7622d89f598173594e]
link web-routes to track-controller--><path d="M99.2251,483.143 C115.99,494.317 142.216,510.807 166.618,522 C175.836,526.228 186.017,530.072 195.763,533.384 " fill="none" id="web-routes-&gt;track-controller" style="stroke: #000000; stroke-width: 0.5;"/><polygon fill="#000000" points="200.507,534.966,193.2344,528.3246,195.7637,533.3844,190.7039,535.9138,200.507,534.966" style="stroke: #000000; stroke-width: 0.5;"/><script type="text/plantuml"><![CDATA[MD5=[e6df980d2c7ba3ef880255b141996951]
@startuml

scale max 1920 width
left to right direction

skinparam nodesep 19
skinparam ranksep 37
skinparam monochrome true
skinparam shadowing false
skinparam defaultFontName Tahoma
skinparam defaultFontSize 12
skinparam roundCorner 6
skinparam dpi 150
skinparam arrowColor black
skinparam arrowThickness 0.5
skinparam packageTitleAlignment left

skinparam usecase {
  borderThickness 0.5
}

skinparam rectangle {
  borderThickness 0.5
}

skinparam component {
  borderThickness 1
}


(about-controller)
(accounts-controller)
(api-routes)
(connect)
(dashboard-controller)
(db)
rectangle "joi-schemas" as _joi_schemas
(logger)
rectangle "playlist" as _playlist
(playlist-api)
(playlist-controller)
(playlist-json-store)
(playlist-mem-store)
(playlist-mongo-store)
(<b>server</b>)
rectangle "track" as _track
(track-api)
(track-controller)
(track-json-store)
(track-mem-store)
(track-mongo-store)
rectangle "user" as _user
(user-api)
(user-json-store)
(user-mem-store)
(user-mongo-store)
(web-routes)

package "Dependencies" {
  [@hapi]
  [dotenv]
  [handlebars]
  [hapi-swagger]
  [joi]
  [mongoose]
  [uuid]
}

(accounts-controller) --> (db)
(accounts-controller) --> _joi_schemas
(api-routes) --> (playlist-api)
(api-routes) --> (track-api)
(api-routes) --> (user-api)
(connect) ----> [dotenv]
(connect) ----> [mongoose]
(dashboard-controller) --> (db)
(dashboard-controller) --> _joi_schemas
(db) --> (connect)
(db) --> (playlist-json-store)
(db) --> (playlist-mem-store)
(db) --> (playlist-mongo-store)
(db) --> (track-json-store)
(db) --> (track-mem-store)
(db) --> (track-mongo-store)
(db) --> (user-json-store)
(db) --> (user-mem-store)
(db) --> (user-mongo-store)
_joi_schemas ----> [joi]
_playlist ----> [mongoose]
(playlist-api) ----> [@hapi]
(playlist-api) --> (db)
(playlist-api) --> _joi_schemas
(playlist-controller) --> (db)
(playlist-controller) --> _joi_schemas
(playlist-json-store) --> (track-json-store)
(playlist-json-store) ----> [uuid]
(playlist-mem-store) --> (track-mem-store)
(playlist-mem-store) ----> [uuid]
(playlist-mongo-store) --> _playlist
(playlist-mongo-store) --> (track-mongo-store)
(<b>server</b>) ---[thickness=1]> [@hapi]
(<b>server</b>) -[thickness=1]> (accounts-controller)
(<b>server</b>) -[thickness=1]> (api-routes)
(<b>server</b>) -[thickness=1]> (db)
(<b>server</b>) ---[thickness=1]> [dotenv]
(<b>server</b>) ---[thickness=1]> [handlebars]
(<b>server</b>) ---[thickness=1]> [hapi-swagger]
(<b>server</b>) ---[thickness=1]> [joi]
(<b>server</b>) -[thickness=1]> (web-routes)
_track ----> [mongoose]
(track-api) ----> [@hapi]
(track-api) --> (db)
(track-controller) --> (db)
(track-controller) --> _joi_schemas
(track-json-store) ----> [uuid]
(track-mem-store) ----> [uuid]
(track-mongo-store) --> _playlist
(track-mongo-store) --> _track
_user ----> [@hapi]
_user ----> [mongoose]
(user-api) ----> [@hapi]
(user-api) --> (db)
(user-api) --> _joi_schemas
(user-api) --> (logger)
(user-json-store) ----> [uuid]
(user-mem-store) ----> [uuid]
(user-mongo-store) --> _user
(web-routes) --> (about-controller)
(web-routes) --> (accounts-controller)
(web-routes) --> (dashboard-controller)
(web-routes) --> (playlist-controller)
(web-routes) --> (track-controller)

@enduml


' View and edit on https://arkit.pro
]]></script></g></svg>